<svg xmlns="http://www.w3.org/2000/svg" width="768" height="685" fill="none"><path fill="#FFD15C" d="m113.426 250.929 140.902-32.253-3.855 78.206-137.047-45.953Z"/><path fill="#FFD15C" d="m124.151 192.151 146.357 14.066-27.974 73.134-118.383-87.2Z"/><path fill="#FFD15C" d="m154.964 144.857 133.288 40.508-42.906 65.5-90.382-106.008Z"/><path fill="#FFD15C" d="m207.949 101.903 106.224 90.128-65.396 43.062-40.828-133.19Z"/><path fill="#FF1F1F" d="M419.193 245.041h176v130h-176zM505.693 164.041l89.5 81h-176l86.5-81Z"/><path fill="#FFD15C" fill-rule="evenodd" d="m396.811 164.041 22.498-69.18-105.634 82.661 16.242 11.367 29.879-24.848h37.015Z" clip-rule="evenodd"/><path fill="#FFD15C" fill-rule="evenodd" d="M352.784 169.873 339.301 67l-59.264 126.073 37.773 5.884 34.974-29.084Z" clip-rule="evenodd"/><path fill="#FFD15C" fill-rule="evenodd" d="M330.44 188.454 271.061 74.836l-12.266 138.766 54.455-10.852 17.19-14.296Z" clip-rule="evenodd"/><path fill="#FFD15C" fill-rule="evenodd" d="M192.193 250.041c0 45.031 28.434 83.684 69 100.304V246.041l98.603-82h15.64c-19.243-14.413-43.449-23-69.743-23-62.684 0-113.5 48.801-113.5 109Zm226.872-5.216-1.327 1.216h1.38a98.005 98.005 0 0 0-.053-1.216ZM461.177 139.682l-14.007 24.359h-32.876l46.883-24.359Z" clip-rule="evenodd"/><path fill="#FFD15C" fill-rule="evenodd" d="m261.193 314.429-6.634-57.342-133.722 54.882 140.356 22.521v-20.061Z" clip-rule="evenodd"/><path fill="#FFD15C" fill-rule="evenodd" d="M261.193 271.338 144.284 367.8l116.909-18.373v-78.089Z" clip-rule="evenodd"/><path fill="#FFD15C" fill-rule="evenodd" d="m261.193 337.289-55.981 38.165 55.981-.915v-37.25Z" clip-rule="evenodd"/><path fill="#FFD15C" d="M535.973 347.761h-57.64l-9.24 27.28h-39.38l55.88-154.44h43.56l55.88 154.44h-39.82l-9.24-27.28Zm-9.68-29.04-19.14-56.54-18.92 56.54h38.06Z"/><path fill="#136F63" d="M282.803 312.201c0-11.786 2.55-22.27 7.65-31.45 5.1-9.293 12.183-16.49 21.25-21.59 9.18-5.213 19.55-7.82 31.11-7.82 14.167 0 26.293 3.74 36.38 11.22 10.087 7.48 16.83 17.68 20.23 30.6h-31.96c-2.38-4.986-5.78-8.783-10.2-11.39-4.307-2.606-9.237-3.91-14.79-3.91-8.953 0-16.207 3.117-21.76 9.35-5.553 6.234-8.33 14.564-8.33 24.99 0 10.427 2.777 18.757 8.33 24.99 5.553 6.234 12.807 9.35 21.76 9.35 5.553 0 10.483-1.303 14.79-3.91 4.42-2.606 7.82-6.403 10.2-11.39h31.96c-3.4 12.92-10.143 23.12-20.23 30.6-10.087 7.367-22.213 11.05-36.38 11.05-11.56 0-21.93-2.55-31.11-7.65-9.067-5.213-16.15-12.41-21.25-21.59-5.1-9.18-7.65-19.663-7.65-31.45Z"/><path fill="#053E61" fill-rule="evenodd" d="M507.193 164.041H359.796l-98.603 82h156.545l89.455-82Zm-161.021 18.796c-8.438 5.138-14.745 11.227-18.92 18.266-4.176 7.038-5.297 13.471-3.364 19.296 1.933 5.826 6.585 10.601 13.957 14.325 7.527 3.665 17.167 5.886 28.921 6.665 14.404.955 28.039-.428 40.904-4.148 12.906-3.787 23.375-9.424 31.41-16.91l-32.496-2.154c-4.186 2.818-8.988 4.856-14.406 6.115-5.302 1.266-10.776 1.713-16.423 1.338-9.103-.603-15.374-2.953-18.812-7.049-3.438-4.097-3.31-9.259.384-15.485 3.694-6.227 9.468-11.014 17.323-14.362 7.854-3.349 16.333-4.721 25.437-4.118 5.646.374 10.197 1.485 13.652 3.332 3.571 1.854 5.683 4.35 6.336 7.489l32.495 2.153c1.121-7.944-2.122-14.49-9.728-19.637-7.605-5.146-18.61-8.197-33.014-9.151-11.754-.779-23.221.079-34.402 2.574-11.025 2.434-20.777 6.255-29.254 11.461Z" clip-rule="evenodd"/><path fill="#3D3D3D" d="M307.4 438c0-2.867.533-5.383 1.6-7.55 1.1-2.167 2.583-3.833 4.45-5 1.867-1.167 3.95-1.75 6.25-1.75 1.833 0 3.5.383 5 1.15 1.533.767 2.733 1.8 3.6 3.1V415h8.55v37h-8.55v-4c-.8 1.333-1.95 2.4-3.45 3.2-1.467.8-3.183 1.2-5.15 1.2-2.3 0-4.383-.583-6.25-1.75-1.867-1.2-3.35-2.883-4.45-5.05-1.067-2.2-1.6-4.733-1.6-7.6Zm20.9.05c0-2.133-.6-3.817-1.8-5.05-1.167-1.233-2.6-1.85-4.3-1.85-1.7 0-3.15.617-4.35 1.85-1.167 1.2-1.75 2.867-1.75 5s.583 3.833 1.75 5.1c1.2 1.233 2.65 1.85 4.35 1.85 1.7 0 3.133-.617 4.3-1.85 1.2-1.233 1.8-2.917 1.8-5.05Zm13.036-.05c0-2.867.533-5.383 1.6-7.55 1.1-2.167 2.583-3.833 4.45-5 1.866-1.167 3.95-1.75 6.25-1.75 1.966 0 3.683.4 5.15 1.2 1.5.8 2.65 1.85 3.45 3.15v-3.95h8.55V452h-8.55v-3.95c-.834 1.3-2 2.35-3.5 3.15-1.467.8-3.184 1.2-5.15 1.2-2.267 0-4.334-.583-6.2-1.75-1.867-1.2-3.35-2.883-4.45-5.05-1.067-2.2-1.6-4.733-1.6-7.6Zm20.9.05c0-2.133-.6-3.817-1.8-5.05-1.167-1.233-2.6-1.85-4.3-1.85-1.7 0-3.15.617-4.35 1.85-1.167 1.2-1.75 2.867-1.75 5s.583 3.833 1.75 5.1c1.2 1.233 2.65 1.85 4.35 1.85 1.7 0 3.133-.617 4.3-1.85 1.2-1.233 1.8-2.917 1.8-5.05ZM68.84 573.92 58.88 602h-8.56l-9.96-28.08h7.28l6.96 21.2 7-21.2h7.24Zm9.899 3.44c-1.2 0-2.187-.347-2.96-1.04-.747-.72-1.12-1.6-1.12-2.64 0-1.067.373-1.947 1.12-2.64.773-.72 1.76-1.08 2.96-1.08 1.173 0 2.133.36 2.88 1.08.773.693 1.16 1.573 1.16 2.64 0 1.04-.387 1.92-1.16 2.64-.747.693-1.707 1.04-2.88 1.04Zm3.4 2.32V602h-6.84v-22.32h6.84Zm7.197 11.12c0-2.293.426-4.307 1.28-6.04.88-1.733 2.066-3.067 3.56-4 1.493-.933 3.16-1.4 5-1.4 1.466 0 2.8.307 4 .92 1.226.613 2.186 1.44 2.88 2.48V572.4h6.84V602h-6.84v-3.2c-.64 1.067-1.56 1.92-2.76 2.56-1.174.64-2.547.96-4.12.96-1.84 0-3.507-.467-5-1.4-1.494-.96-2.68-2.307-3.56-4.04-.854-1.76-1.28-3.787-1.28-6.08Zm16.72.04c0-1.707-.48-3.053-1.44-4.04-.934-.987-2.08-1.48-3.44-1.48-1.36 0-2.52.493-3.48 1.48-.934.96-1.4 2.293-1.4 4 0 1.707.466 3.067 1.4 4.08.96.987 2.12 1.48 3.48 1.48 1.36 0 2.506-.493 3.44-1.48.96-.987 1.44-2.333 1.44-4.04Zm14.028-.04c0-2.293.427-4.307 1.28-6.04.88-1.733 2.067-3.067 3.56-4 1.493-.933 3.16-1.4 5-1.4 1.573 0 2.947.32 4.12.96 1.2.64 2.12 1.48 2.76 2.52v-3.16h6.84V602h-6.84v-3.16c-.667 1.04-1.6 1.88-2.8 2.52-1.173.64-2.547.96-4.12.96-1.813 0-3.467-.467-4.96-1.4-1.493-.96-2.68-2.307-3.56-4.04-.853-1.76-1.28-3.787-1.28-6.08Zm16.72.04c0-1.707-.48-3.053-1.44-4.04-.933-.987-2.08-1.48-3.44-1.48-1.36 0-2.52.493-3.48 1.48-.933.96-1.4 2.293-1.4 4 0 1.707.467 3.067 1.4 4.08.96.987 2.12 1.48 3.48 1.48 1.36 0 2.507-.493 3.44-1.48.96-.987 1.44-2.333 1.44-4.04Zm22.749 4.84-4.44 11.48h-4.36l2.32-11.48h6.48Zm18.64-7.76c0-2.773.6-5.24 1.8-7.4 1.2-2.187 2.867-3.88 5-5.08 2.16-1.227 4.6-1.84 7.32-1.84 3.334 0 6.187.88 8.56 2.64 2.374 1.76 3.96 4.16 4.76 7.2h-7.52c-.56-1.173-1.36-2.067-2.4-2.68-1.013-.613-2.173-.92-3.48-.92-2.106 0-3.813.733-5.12 2.2-1.306 1.467-1.96 3.427-1.96 5.88s.654 4.413 1.96 5.88c1.307 1.467 3.014 2.2 5.12 2.2 1.307 0 2.467-.307 3.48-.92 1.04-.613 1.84-1.507 2.4-2.68h7.52c-.8 3.04-2.386 5.44-4.76 7.2-2.373 1.733-5.226 2.6-8.56 2.6-2.72 0-5.16-.6-7.32-1.8a13.083 13.083 0 0 1-5-5.08c-1.2-2.16-1.8-4.627-1.8-7.4Zm38.669-10.56c-1.2 0-2.186-.347-2.96-1.04-.746-.72-1.12-1.6-1.12-2.64 0-1.067.374-1.947 1.12-2.64.774-.72 1.76-1.08 2.96-1.08 1.174 0 2.134.36 2.88 1.08.774.693 1.16 1.573 1.16 2.64 0 1.04-.386 1.92-1.16 2.64-.746.693-1.706 1.04-2.88 1.04Zm3.4 2.32V602h-6.84v-22.32h6.84Zm7.197 11.12c0-2.293.427-4.307 1.28-6.04.88-1.733 2.067-3.067 3.56-4 1.493-.933 3.16-1.4 5-1.4 1.467 0 2.8.307 4 .92 1.227.613 2.187 1.44 2.88 2.48V572.4h6.84V602h-6.84v-3.2c-.64 1.067-1.56 1.92-2.76 2.56-1.173.64-2.547.96-4.12.96-1.84 0-3.507-.467-5-1.4-1.493-.96-2.68-2.307-3.56-4.04-.853-1.76-1.28-3.787-1.28-6.08Zm16.72.04c0-1.707-.48-3.053-1.44-4.04-.933-.987-2.08-1.48-3.44-1.48-1.36 0-2.52.493-3.48 1.48-.933.96-1.4 2.293-1.4 4 0 1.707.467 3.067 1.4 4.08.96.987 2.12 1.48 3.48 1.48 1.36 0 2.507-.493 3.44-1.48.96-.987 1.44-2.333 1.44-4.04Zm14.028-.04c0-2.293.427-4.307 1.28-6.04.88-1.733 2.067-3.067 3.56-4 1.494-.933 3.16-1.4 5-1.4 1.574 0 2.947.32 4.12.96 1.2.64 2.12 1.48 2.76 2.52v-3.16h6.84V602h-6.84v-3.16c-.666 1.04-1.6 1.88-2.8 2.52-1.173.64-2.546.96-4.12.96-1.813 0-3.466-.467-4.96-1.4-1.493-.96-2.68-2.307-3.56-4.04-.853-1.76-1.28-3.787-1.28-6.08Zm16.72.04c0-1.707-.48-3.053-1.44-4.04-.933-.987-2.08-1.48-3.44-1.48-1.36 0-2.52.493-3.48 1.48-.933.96-1.4 2.293-1.4 4 0 1.707.467 3.067 1.4 4.08.96.987 2.12 1.48 3.48 1.48 1.36 0 2.507-.493 3.44-1.48.96-.987 1.44-2.333 1.44-4.04Zm14.029-.04c0-2.293.427-4.307 1.28-6.04.88-1.733 2.067-3.067 3.56-4 1.493-.933 3.16-1.4 5-1.4 1.467 0 2.8.307 4 .92 1.227.613 2.187 1.44 2.88 2.48V572.4h6.84V602h-6.84v-3.2c-.64 1.067-1.56 1.92-2.76 2.56-1.173.64-2.547.96-4.12.96-1.84 0-3.507-.467-5-1.4-1.493-.96-2.68-2.307-3.56-4.04-.853-1.76-1.28-3.787-1.28-6.08Zm16.72.04c0-1.707-.48-3.053-1.44-4.04-.933-.987-2.08-1.48-3.44-1.48-1.36 0-2.52.493-3.48 1.48-.933.96-1.4 2.293-1.4 4 0 1.707.467 3.067 1.4 4.08.96.987 2.12 1.48 3.48 1.48 1.36 0 2.507-.493 3.44-1.48.96-.987 1.44-2.333 1.44-4.04Zm14.028-.04c0-2.293.427-4.307 1.28-6.04.88-1.733 2.067-3.067 3.56-4 1.494-.933 3.16-1.4 5-1.4 1.574 0 2.947.32 4.12.96 1.2.64 2.12 1.48 2.76 2.52v-3.16h6.84V602h-6.84v-3.16c-.666 1.04-1.6 1.88-2.8 2.52-1.173.64-2.546.96-4.12.96-1.813 0-3.466-.467-4.96-1.4-1.493-.96-2.68-2.307-3.56-4.04-.853-1.76-1.28-3.787-1.28-6.08Zm16.72.04c0-1.707-.48-3.053-1.44-4.04-.933-.987-2.08-1.48-3.44-1.48-1.36 0-2.52.493-3.48 1.48-.933.96-1.4 2.293-1.4 4 0 1.707.467 3.067 1.4 4.08.96.987 2.12 1.48 3.48 1.48 1.36 0 2.507-.493 3.44-1.48.96-.987 1.44-2.333 1.44-4.04Zm28.989-11.4c2.613 0 4.693.853 6.24 2.56 1.573 1.68 2.36 4 2.36 6.96V602h-6.8v-12.12c0-1.493-.387-2.653-1.16-3.48-.774-.827-1.814-1.24-3.12-1.24-1.307 0-2.347.413-3.12 1.24-.774.827-1.16 1.987-1.16 3.48V602h-6.84v-22.32h6.84v2.96c.693-.987 1.626-1.76 2.8-2.32 1.173-.587 2.493-.88 3.96-.88Zm20.393-2.08c-1.2 0-2.187-.347-2.96-1.04-.747-.72-1.12-1.6-1.12-2.64 0-1.067.373-1.947 1.12-2.64.773-.72 1.76-1.08 2.96-1.08 1.173 0 2.133.36 2.88 1.08.773.693 1.16 1.573 1.16 2.64 0 1.04-.387 1.92-1.16 2.64-.747.693-1.707 1.04-2.88 1.04Zm3.4 2.32V602h-6.84v-22.32h6.84Zm7.197 11.12c0-2.293.426-4.307 1.28-6.04.88-1.733 2.066-3.067 3.56-4 1.493-.933 3.16-1.4 5-1.4 1.573 0 2.946.32 4.12.96 1.2.64 2.12 1.48 2.76 2.52v-3.16h6.84V602h-6.84v-3.16c-.667 1.04-1.6 1.88-2.8 2.52-1.174.64-2.547.96-4.12.96-1.814 0-3.467-.467-4.96-1.4-1.494-.96-2.68-2.307-3.56-4.04-.854-1.76-1.28-3.787-1.28-6.08Zm16.72.04c0-1.707-.48-3.053-1.44-4.04-.934-.987-2.08-1.48-3.44-1.48-1.36 0-2.52.493-3.48 1.48-.934.96-1.4 2.293-1.4 4 0 1.707.466 3.067 1.4 4.08.96.987 2.12 1.48 3.48 1.48 1.36 0 2.506-.493 3.44-1.48.96-.987 1.44-2.333 1.44-4.04Zm48.505-.36c0 .64-.04 1.307-.12 2h-15.48c.106 1.387.546 2.453 1.32 3.2.8.72 1.773 1.08 2.92 1.08 1.706 0 2.893-.72 3.56-2.16h7.28a9.873 9.873 0 0 1-2.04 3.96c-.96 1.173-2.174 2.093-3.64 2.76-1.467.667-3.107 1-4.92 1-2.187 0-4.134-.467-5.84-1.4-1.707-.933-3.04-2.267-4-4s-1.44-3.76-1.44-6.08c0-2.32.466-4.347 1.4-6.08.96-1.733 2.293-3.067 4-4 1.706-.933 3.666-1.4 5.88-1.4 2.16 0 4.08.453 5.76 1.36a9.641 9.641 0 0 1 3.92 3.88c.96 1.68 1.44 3.64 1.44 5.88Zm-7-1.8c0-1.173-.4-2.107-1.2-2.8-.8-.693-1.8-1.04-3-1.04-1.147 0-2.12.333-2.92 1-.774.667-1.254 1.613-1.44 2.84h8.56Zm33.125-9.28v5.68h9.16v5.28h-9.16v6.16h10.36V602h-17.2v-28.08h17.2v5.48h-10.36Zm27.48 22.92c-1.946 0-3.68-.333-5.2-1s-2.72-1.573-3.6-2.72a7.312 7.312 0 0 1-1.48-3.92h6.76c.08.773.44 1.4 1.08 1.88.64.48 1.427.72 2.36.72.854 0 1.507-.16 1.96-.48.48-.347.72-.787.72-1.32 0-.64-.333-1.107-1-1.4-.666-.32-1.746-.667-3.24-1.04-1.6-.373-2.933-.76-4-1.16a7.195 7.195 0 0 1-2.76-1.96c-.773-.907-1.16-2.12-1.16-3.64 0-1.28.347-2.44 1.04-3.48.72-1.067 1.76-1.907 3.12-2.52 1.387-.613 3.027-.92 4.92-.92 2.8 0 5 .693 6.6 2.08 1.627 1.387 2.56 3.227 2.8 5.52h-6.32c-.106-.773-.453-1.387-1.04-1.84-.56-.453-1.306-.68-2.24-.68-.8 0-1.413.16-1.84.48-.426.293-.64.707-.64 1.24 0 .64.334 1.12 1 1.44.694.32 1.76.64 3.2.96 1.654.427 3 .853 4.04 1.28 1.04.4 1.947 1.067 2.72 2 .8.907 1.214 2.133 1.24 3.68 0 1.307-.373 2.48-1.12 3.52-.72 1.013-1.773 1.813-3.16 2.4-1.36.587-2.946.88-4.76.88Zm23.665-19.48c.667-1.04 1.587-1.88 2.76-2.52 1.173-.64 2.547-.96 4.12-.96 1.84 0 3.507.467 5 1.4 1.493.933 2.667 2.267 3.52 4 .88 1.733 1.32 3.747 1.32 6.04s-.44 4.32-1.32 6.08c-.853 1.733-2.027 3.08-3.52 4.04-1.493.933-3.16 1.4-5 1.4-1.547 0-2.92-.32-4.12-.96-1.173-.64-2.093-1.467-2.76-2.48v13.76h-6.84v-32.96h6.84v3.16Zm9.76 7.96c0-1.707-.48-3.04-1.44-4-.933-.987-2.093-1.48-3.48-1.48-1.36 0-2.52.493-3.48 1.48-.933.987-1.4 2.333-1.4 4.04 0 1.707.467 3.053 1.4 4.04.96.987 2.12 1.48 3.48 1.48 1.36 0 2.52-.493 3.48-1.48.96-1.013 1.44-2.373 1.44-4.08Zm35.189-.32c0 .64-.04 1.307-.12 2h-15.48c.106 1.387.546 2.453 1.32 3.2.8.72 1.773 1.08 2.92 1.08 1.706 0 2.893-.72 3.56-2.16h7.28a9.873 9.873 0 0 1-2.04 3.96c-.96 1.173-2.174 2.093-3.64 2.76-1.467.667-3.107 1-4.92 1-2.187 0-4.134-.467-5.84-1.4-1.707-.933-3.04-2.267-4-4s-1.44-3.76-1.44-6.08c0-2.32.466-4.347 1.4-6.08.96-1.733 2.293-3.067 4-4 1.706-.933 3.666-1.4 5.88-1.4 2.16 0 4.08.453 5.76 1.36a9.641 9.641 0 0 1 3.92 3.88c.96 1.68 1.44 3.64 1.44 5.88Zm-7-1.8c0-1.173-.4-2.107-1.2-2.8-.8-.693-1.8-1.04-3-1.04-1.147 0-2.12.333-2.92 1-.774.667-1.254 1.613-1.44 2.84h8.56Zm21.048-5.28c.8-1.227 1.8-2.187 3-2.88 1.2-.72 2.533-1.08 4-1.08v7.24h-1.88c-1.707 0-2.987.373-3.84 1.12-.853.72-1.28 2-1.28 3.84V602h-6.84v-22.32h6.84v3.72Zm12.509 7.4c0-2.293.427-4.307 1.28-6.04.88-1.733 2.067-3.067 3.56-4 1.494-.933 3.16-1.4 5-1.4 1.574 0 2.947.32 4.12.96 1.2.64 2.12 1.48 2.76 2.52v-3.16h6.84V602h-6.84v-3.16c-.666 1.04-1.6 1.88-2.8 2.52-1.173.64-2.546.96-4.12.96-1.813 0-3.466-.467-4.96-1.4-1.493-.96-2.68-2.307-3.56-4.04-.853-1.76-1.28-3.787-1.28-6.08Zm16.72.04c0-1.707-.48-3.053-1.44-4.04-.933-.987-2.08-1.48-3.44-1.48-1.36 0-2.52.493-3.48 1.48-.933.96-1.4 2.293-1.4 4 0 1.707.467 3.067 1.4 4.08.96.987 2.12 1.48 3.48 1.48 1.36 0 2.507-.493 3.44-1.48.96-.987 1.44-2.333 1.44-4.04Zm28.989-11.4c2.613 0 4.693.853 6.24 2.56 1.573 1.68 2.36 4 2.36 6.96V602h-6.8v-12.12c0-1.493-.387-2.653-1.16-3.48-.773-.827-1.813-1.24-3.12-1.24-1.307 0-2.347.413-3.12 1.24-.773.827-1.16 1.987-1.16 3.48V602h-6.84v-22.32h6.84v2.96c.693-.987 1.627-1.76 2.8-2.32 1.173-.587 2.493-.88 3.96-.88Zm26.673 17.04c1.76 0 2.947-.853 3.56-2.56h7.28c-.507 2.267-1.52 4.12-3.04 5.56-1.52 1.44-3.413 2.333-5.68 2.68v1.48c1.387 0 2.6.373 3.64 1.12 1.04.773 1.56 1.92 1.56 3.44s-.547 2.667-1.64 3.44c-1.093.8-2.4 1.2-3.92 1.2h-6.16v-3.76h5.24c.533 0 .933-.08 1.2-.24.267-.16.4-.427.4-.8 0-.373-.133-.64-.4-.8-.267-.133-.667-.2-1.2-.2h-2.84v-4.88c-2.747-.427-4.947-1.64-6.6-3.64-1.653-2.027-2.48-4.587-2.48-7.68 0-2.32.467-4.347 1.4-6.08.96-1.733 2.28-3.067 3.96-4 1.707-.933 3.653-1.4 5.84-1.4 2.8 0 5.133.733 7 2.2 1.893 1.467 3.133 3.533 3.72 6.2h-7.28c-.613-1.707-1.8-2.56-3.56-2.56-1.253 0-2.253.493-3 1.48-.747.96-1.12 2.347-1.12 4.16 0 1.813.373 3.213 1.12 4.2.747.96 1.747 1.44 3 1.44Zm16.739-5.68c0-2.293.426-4.307 1.28-6.04.88-1.733 2.066-3.067 3.56-4 1.493-.933 3.16-1.4 5-1.4 1.573 0 2.946.32 4.12.96 1.2.64 2.12 1.48 2.76 2.52v-3.16h6.84V602h-6.84v-3.16c-.667 1.04-1.6 1.88-2.8 2.52-1.174.64-2.547.96-4.12.96-1.814 0-3.467-.467-4.96-1.4-1.494-.96-2.68-2.307-3.56-4.04-.854-1.76-1.28-3.787-1.28-6.08Zm16.72.04c0-1.707-.48-3.053-1.44-4.04-.934-.987-2.08-1.48-3.44-1.48-1.36 0-2.52.493-3.48 1.48-.934.96-1.4 2.293-1.4 4 0 1.707.466 3.067 1.4 4.08.96.987 2.12 1.48 3.48 1.48 1.36 0 2.506-.493 3.44-1.48.96-.987 1.44-2.333 1.44-4.04ZM69.4 523.6c0 .8-.05 1.633-.15 2.5H49.9c.133 1.733.683 3.067 1.65 4 1 .9 2.217 1.35 3.65 1.35 2.133 0 3.617-.9 4.45-2.7h9.1a12.33 12.33 0 0 1-2.55 4.95c-1.2 1.467-2.717 2.617-4.55 3.45-1.833.833-3.883 1.25-6.15 1.25-2.733 0-5.167-.583-7.3-1.75s-3.8-2.833-5-5c-1.2-2.167-1.8-4.7-1.8-7.6 0-2.9.583-5.433 1.75-7.6 1.2-2.167 2.867-3.833 5-5 2.133-1.167 4.583-1.75 7.35-1.75 2.7 0 5.1.567 7.2 1.7 2.1 1.133 3.733 2.75 4.9 4.85 1.2 2.1 1.8 4.55 1.8 7.35Zm-8.75-2.25c0-1.467-.5-2.633-1.5-3.5s-2.25-1.3-3.75-1.3c-1.433 0-2.65.417-3.65 1.25-.967.833-1.567 2.017-1.8 3.55h10.7Zm49.252 2.65c0-2.867.533-5.383 1.6-7.55 1.1-2.167 2.583-3.833 4.45-5 1.867-1.167 3.95-1.75 6.25-1.75 1.833 0 3.5.383 5 1.15 1.533.767 2.733 1.8 3.6 3.1V501h8.55v37h-8.55v-4c-.8 1.333-1.95 2.4-3.45 3.2-1.467.8-3.183 1.2-5.15 1.2-2.3 0-4.383-.583-6.25-1.75-1.867-1.2-3.35-2.883-4.45-5.05-1.067-2.2-1.6-4.733-1.6-7.6Zm20.9.05c0-2.133-.6-3.817-1.8-5.05-1.167-1.233-2.6-1.85-4.3-1.85-1.7 0-3.15.617-4.35 1.85-1.167 1.2-1.75 2.867-1.75 5s.583 3.833 1.75 5.1c1.2 1.233 2.65 1.85 4.35 1.85 1.7 0 3.133-.617 4.3-1.85 1.2-1.233 1.8-2.917 1.8-5.05Zm32.936 14.35c-2.734 0-5.2-.583-7.4-1.75-2.167-1.167-3.884-2.833-5.15-5-1.234-2.167-1.85-4.7-1.85-7.6 0-2.867.633-5.383 1.899-7.55 1.267-2.2 3.001-3.883 5.201-5.05 2.2-1.167 4.666-1.75 7.4-1.75 2.733 0 5.2.583 7.4 1.75s3.933 2.85 5.2 5.05c1.266 2.167 1.9 4.683 1.9 7.55s-.65 5.4-1.95 7.6a12.862 12.862 0 0 1-5.25 5c-2.2 1.167-4.667 1.75-7.4 1.75Zm0-7.4c1.633 0 3.016-.6 4.15-1.8 1.166-1.2 1.75-2.917 1.75-5.15 0-2.233-.567-3.95-1.7-5.15-1.1-1.2-2.467-1.8-4.1-1.8-1.667 0-3.05.6-4.15 1.8-1.1 1.167-1.65 2.883-1.65 5.15 0 2.233.533 3.95 1.6 5.15 1.1 1.2 2.466 1.8 4.1 1.8ZM42.31 427.36c0-4.853 1.05-9.17 3.15-12.95 2.1-3.827 5.017-6.79 8.75-8.89 3.78-2.147 8.05-3.22 12.81-3.22 5.833 0 10.827 1.54 14.98 4.62 4.153 3.08 6.93 7.28 8.33 12.6H77.17c-.98-2.053-2.38-3.617-4.2-4.69-1.773-1.073-3.803-1.61-6.09-1.61-3.687 0-6.673 1.283-8.96 3.85-2.287 2.567-3.43 5.997-3.43 10.29 0 4.293 1.143 7.723 3.43 10.29 2.287 2.567 5.273 3.85 8.96 3.85 2.287 0 4.317-.537 6.09-1.61 1.82-1.073 3.22-2.637 4.2-4.69h13.16c-1.4 5.32-4.177 9.52-8.33 12.6-4.153 3.033-9.147 4.55-14.98 4.55-4.76 0-9.03-1.05-12.81-3.15-3.733-2.147-6.65-5.11-8.75-8.89-2.1-3.78-3.15-8.097-3.15-12.95Zm100.774 15.96h-18.34l-2.94 8.68h-12.53l17.78-49.14h13.86l17.78 49.14h-12.67l-2.94-8.68Zm-3.08-9.24-6.09-17.99-6.02 17.99h12.11Zm56.716 18.41c-3.594 0-6.814-.583-9.66-1.75-2.847-1.167-5.134-2.893-6.86-5.18-1.68-2.287-2.567-5.04-2.66-8.26h12.74c.186 1.82.816 3.22 1.89 4.2 1.073.933 2.473 1.4 4.2 1.4 1.773 0 3.173-.397 4.2-1.19 1.026-.84 1.54-1.983 1.54-3.43 0-1.213-.42-2.217-1.26-3.01-.794-.793-1.797-1.447-3.01-1.96-1.167-.513-2.847-1.097-5.04-1.75-3.174-.98-5.764-1.96-7.77-2.94-2.007-.98-3.734-2.427-5.18-4.34-1.447-1.913-2.17-4.41-2.17-7.49 0-4.573 1.656-8.143 4.97-10.71 3.313-2.613 7.63-3.92 12.95-3.92 5.413 0 9.776 1.307 13.09 3.92 3.313 2.567 5.086 6.16 5.32 10.78h-12.95c-.094-1.587-.677-2.823-1.75-3.71-1.074-.933-2.45-1.4-4.13-1.4-1.447 0-2.614.397-3.5 1.19-.887.747-1.33 1.843-1.33 3.29 0 1.587.746 2.823 2.24 3.71 1.493.887 3.826 1.843 7 2.87 3.173 1.073 5.74 2.1 7.7 3.08 2.006.98 3.733 2.403 5.18 4.27 1.446 1.867 2.17 4.27 2.17 7.21 0 2.8-.724 5.343-2.17 7.63-1.4 2.287-3.454 4.107-6.16 5.46-2.707 1.353-5.904 2.03-9.59 2.03Zm70.71-9.17h-18.34l-2.94 8.68h-12.53l17.78-49.14h13.86L283.04 452h-12.67l-2.94-8.68Zm-3.08-9.24-6.09-17.99-6.02 17.99h12.11ZM391.31 427.36c0-4.853 1.05-9.17 3.15-12.95 2.1-3.827 5.017-6.79 8.75-8.89 3.78-2.147 8.05-3.22 12.81-3.22 5.833 0 10.827 1.54 14.98 4.62 4.153 3.08 6.93 7.28 8.33 12.6h-13.16c-.98-2.053-2.38-3.617-4.2-4.69-1.773-1.073-3.803-1.61-6.09-1.61-3.687 0-6.673 1.283-8.96 3.85-2.287 2.567-3.43 5.997-3.43 10.29 0 4.293 1.143 7.723 3.43 10.29 2.287 2.567 5.273 3.85 8.96 3.85 2.287 0 4.317-.537 6.09-1.61 1.82-1.073 3.22-2.637 4.2-4.69h13.16c-1.4 5.32-4.177 9.52-8.33 12.6-4.153 3.033-9.147 4.55-14.98 4.55-4.76 0-9.03-1.05-12.81-3.15-3.733-2.147-6.65-5.11-8.75-8.89-2.1-3.78-3.15-8.097-3.15-12.95ZM471.72 452l-10.22-18.55h-2.87V452h-11.97v-49.14h20.09c3.874 0 7.164.677 9.87 2.03 2.754 1.353 4.807 3.22 6.16 5.6 1.354 2.333 2.03 4.947 2.03 7.84 0 3.267-.933 6.183-2.8 8.75-1.82 2.567-4.526 4.387-8.12 5.46L485.23 452h-13.51Zm-13.09-27.02h7.42c2.194 0 3.827-.537 4.9-1.61 1.12-1.073 1.68-2.59 1.68-4.55 0-1.867-.56-3.337-1.68-4.41-1.073-1.073-2.706-1.61-4.9-1.61h-7.42v12.18Zm45.664-22.12V452h-11.97v-49.14h11.97Zm39.265 40.46h-18.34l-2.94 8.68h-12.53l17.78-49.14h13.86l17.78 49.14h-12.67l-2.94-8.68Zm-3.08-9.24-6.09-17.99-6.02 17.99h12.11ZM608.54 452h-11.97l-20.02-30.31V452h-11.97v-49.14h11.97l20.02 30.45v-30.45h11.97V452Zm31.217-10.5c2.287 0 4.317-.537 6.09-1.61 1.82-1.073 3.22-2.637 4.2-4.69h13.16c-1.26 4.713-3.617 8.563-7.07 11.55-3.407 2.94-7.56 4.737-12.46 5.39v2.73c2.427 0 4.55.653 6.37 1.96 1.82 1.353 2.73 3.36 2.73 6.02 0 2.66-.957 4.667-2.87 6.02-1.913 1.4-4.2 2.1-6.86 2.1h-10.78v-6.58h9.17c.933 0 1.633-.14 2.1-.42.467-.28.7-.747.7-1.4 0-.653-.233-1.12-.7-1.4-.467-.233-1.167-.35-2.1-.35h-4.97v-8.68c-4.2-.467-7.91-1.797-11.13-3.99-3.22-2.24-5.717-5.157-7.49-8.75-1.773-3.593-2.66-7.607-2.66-12.04 0-4.853 1.05-9.17 3.15-12.95 2.1-3.827 5.017-6.79 8.75-8.89 3.78-2.147 8.05-3.22 12.81-3.22 5.833 0 10.827 1.54 14.98 4.62 4.153 3.08 6.93 7.28 8.33 12.6h-13.16c-.98-2.053-2.38-3.617-4.2-4.69-1.773-1.073-3.803-1.61-6.09-1.61-3.687 0-6.673 1.283-8.96 3.85-2.287 2.567-3.43 5.997-3.43 10.29 0 4.293 1.143 7.723 3.43 10.29 2.287 2.567 5.273 3.85 8.96 3.85Zm61.37 1.82h-18.34l-2.94 8.68h-12.53l17.78-49.14h13.86l17.78 49.14h-12.67l-2.94-8.68Zm-3.08-9.24-6.09-17.99-6.02 17.99h12.11ZM252.93 529.32h-18.34l-2.94 8.68h-12.53l17.78-49.14h13.86L268.54 538h-12.67l-2.94-8.68Zm-3.08-9.24-6.09-17.99-6.02 17.99h12.11Zm43.911-31.22c5.18 0 9.707 1.027 13.58 3.08 3.874 2.053 6.86 4.947 8.96 8.68 2.147 3.687 3.22 7.957 3.22 12.81 0 4.807-1.073 9.077-3.22 12.81-2.1 3.733-5.11 6.627-9.03 8.68-3.873 2.053-8.376 3.08-13.51 3.08h-18.41v-49.14h18.41Zm-.77 38.78c4.527 0 8.05-1.237 10.57-3.71 2.52-2.473 3.78-5.973 3.78-10.5s-1.26-8.05-3.78-10.57c-2.52-2.52-6.043-3.78-10.57-3.78h-5.67v28.56h5.67Zm57.86 10.85c-4.62 0-8.867-1.073-12.74-3.22-3.827-2.147-6.884-5.133-9.17-8.96-2.24-3.873-3.36-8.213-3.36-13.02s1.12-9.123 3.36-12.95c2.286-3.827 5.343-6.813 9.17-8.96 3.873-2.147 8.12-3.22 12.74-3.22 4.62 0 8.843 1.073 12.67 3.22 3.873 2.147 6.906 5.133 9.1 8.96 2.24 3.827 3.36 8.143 3.36 12.95 0 4.807-1.12 9.147-3.36 13.02-2.24 3.827-5.274 6.813-9.1 8.96-3.827 2.147-8.05 3.22-12.67 3.22Zm0-10.92c3.92 0 7.046-1.307 9.38-3.92 2.38-2.613 3.57-6.067 3.57-10.36 0-4.34-1.19-7.793-3.57-10.36-2.334-2.613-5.46-3.92-9.38-3.92-3.967 0-7.14 1.283-9.52 3.85-2.334 2.567-3.5 6.043-3.5 10.43 0 4.34 1.166 7.817 3.5 10.43 2.38 2.567 5.553 3.85 9.52 3.85Zm45.159 1.19h15.68V538h-27.65v-49.14h11.97v39.9Zm34.759-30.31v9.94h16.03v9.24h-16.03v10.78h18.13V538h-30.1v-49.14h30.1v9.59h-18.13Zm45.081 40.04c-3.593 0-6.813-.583-9.66-1.75-2.846-1.167-5.133-2.893-6.86-5.18-1.68-2.287-2.566-5.04-2.66-8.26h12.74c.187 1.82.817 3.22 1.89 4.2 1.074.933 2.474 1.4 4.2 1.4 1.774 0 3.174-.397 4.2-1.19 1.027-.84 1.54-1.983 1.54-3.43 0-1.213-.42-2.217-1.26-3.01-.793-.793-1.796-1.447-3.01-1.96-1.166-.513-2.846-1.097-5.04-1.75-3.173-.98-5.763-1.96-7.77-2.94-2.006-.98-3.733-2.427-5.18-4.34-1.446-1.913-2.17-4.41-2.17-7.49 0-4.573 1.657-8.143 4.97-10.71 3.314-2.613 7.63-3.92 12.95-3.92 5.414 0 9.777 1.307 13.09 3.92 3.314 2.567 5.087 6.16 5.32 10.78h-12.95c-.093-1.587-.676-2.823-1.75-3.71-1.073-.933-2.45-1.4-4.13-1.4-1.446 0-2.613.397-3.5 1.19-.886.747-1.33 1.843-1.33 3.29 0 1.587.747 2.823 2.24 3.71 1.494.887 3.827 1.843 7 2.87 3.174 1.073 5.74 2.1 7.7 3.08 2.007.98 3.734 2.403 5.18 4.27 1.447 1.867 2.17 4.27 2.17 7.21 0 2.8-.723 5.343-2.17 7.63-1.4 2.287-3.453 4.107-6.16 5.46-2.706 1.353-5.903 2.03-9.59 2.03Zm24.657-25.13c0-4.853 1.05-9.17 3.15-12.95 2.1-3.827 5.017-6.79 8.75-8.89 3.78-2.147 8.05-3.22 12.81-3.22 5.833 0 10.827 1.54 14.98 4.62 4.153 3.08 6.93 7.28 8.33 12.6h-13.16c-.98-2.053-2.38-3.617-4.2-4.69-1.773-1.073-3.803-1.61-6.09-1.61-3.687 0-6.673 1.283-8.96 3.85-2.287 2.567-3.43 5.997-3.43 10.29 0 4.293 1.143 7.723 3.43 10.29 2.287 2.567 5.273 3.85 8.96 3.85 2.287 0 4.317-.537 6.09-1.61 1.82-1.073 3.22-2.637 4.2-4.69h13.16c-1.4 5.32-4.177 9.52-8.33 12.6-4.153 3.033-9.147 4.55-14.98 4.55-4.76 0-9.03-1.05-12.81-3.15-3.733-2.147-6.65-5.11-8.75-8.89-2.1-3.78-3.15-8.097-3.15-12.95Zm68.72-14.91v9.94h16.03v9.24h-16.03v10.78h18.13V538h-30.1v-49.14h30.1v9.59h-18.13ZM640.488 538h-11.97l-20.02-30.31V538h-11.97v-49.14h11.97l20.02 30.45v-30.45h11.97V538Zm45.427-49.14v9.59h-13.02V538h-11.97v-39.55h-13.02v-9.59h38.01Zm19.377 9.59v9.94h16.03v9.24h-16.03v10.78h18.13V538h-30.1v-49.14h30.1v9.59h-18.13Z"/></svg>