<svg id="visual" viewBox="0 0 1000 600" width="1000" height="600" xmlns="http://www.w3.org/2000/svg" xmlns:xlink="http://www.w3.org/1999/xlink" version="1.1"><rect x="0" y="0" width="1000" height="600" fill="#54a2d6"></rect><defs><linearGradient id="grad1_0" x1="40%" y1="0%" x2="100%" y2="100%"><stop offset="16.666666666666664%" stop-color="#085d91" stop-opacity="1"></stop><stop offset="83.33333333333334%" stop-color="#085d91" stop-opacity="1"></stop></linearGradient></defs><defs><linearGradient id="grad1_1" x1="40%" y1="0%" x2="100%" y2="100%"><stop offset="16.666666666666664%" stop-color="#085d91" stop-opacity="1"></stop><stop offset="83.33333333333334%" stop-color="#216ea2" stop-opacity="1"></stop></linearGradient></defs><defs><linearGradient id="grad1_2" x1="40%" y1="0%" x2="100%" y2="100%"><stop offset="16.666666666666664%" stop-color="#347fb3" stop-opacity="1"></stop><stop offset="83.33333333333334%" stop-color="#216ea2" stop-opacity="1"></stop></linearGradient></defs><defs><linearGradient id="grad1_3" x1="40%" y1="0%" x2="100%" y2="100%"><stop offset="16.666666666666664%" stop-color="#347fb3" stop-opacity="1"></stop><stop offset="83.33333333333334%" stop-color="#4490c4" stop-opacity="1"></stop></linearGradient></defs><defs><linearGradient id="grad1_4" x1="40%" y1="0%" x2="100%" y2="100%"><stop offset="16.666666666666664%" stop-color="#54a2d6" stop-opacity="1"></stop><stop offset="83.33333333333334%" stop-color="#4490c4" stop-opacity="1"></stop></linearGradient></defs><defs><linearGradient id="grad2_0" x1="0%" y1="0%" x2="60%" y2="100%"><stop offset="16.666666666666664%" stop-color="#085d91" stop-opacity="1"></stop><stop offset="83.33333333333334%" stop-color="#085d91" stop-opacity="1"></stop></linearGradient></defs><defs><linearGradient id="grad2_1" x1="0%" y1="0%" x2="60%" y2="100%"><stop offset="16.666666666666664%" stop-color="#216ea2" stop-opacity="1"></stop><stop offset="83.33333333333334%" stop-color="#085d91" stop-opacity="1"></stop></linearGradient></defs><defs><linearGradient id="grad2_2" x1="0%" y1="0%" x2="60%" y2="100%"><stop offset="16.666666666666664%" stop-color="#216ea2" stop-opacity="1"></stop><stop offset="83.33333333333334%" stop-color="#347fb3" stop-opacity="1"></stop></linearGradient></defs><defs><linearGradient id="grad2_3" x1="0%" y1="0%" x2="60%" y2="100%"><stop offset="16.666666666666664%" stop-color="#4490c4" stop-opacity="1"></stop><stop offset="83.33333333333334%" stop-color="#347fb3" stop-opacity="1"></stop></linearGradient></defs><defs><linearGradient id="grad2_4" x1="0%" y1="0%" x2="60%" y2="100%"><stop offset="16.666666666666664%" stop-color="#4490c4" stop-opacity="1"></stop><stop offset="83.33333333333334%" stop-color="#54a2d6" stop-opacity="1"></stop></linearGradient></defs><g transform="translate(1000, 0)"><path d="M0 567C-46.2 515.1 -92.5 463.2 -144.3 444.1C-196.1 425.1 -253.5 438.9 -309.8 426.4C-366 413.8 -421.1 374.8 -447.4 325C-473.6 275.3 -471 214.8 -488.8 158.8C-506.7 102.9 -544.9 51.4 -583.1 0L0 0Z" fill="#4c99cd"></path><path d="M0 453.6C-37 412.1 -74 370.5 -115.4 355.3C-156.9 340.1 -202.8 351.1 -247.8 341.1C-292.8 331 -336.9 299.8 -357.9 260C-378.9 220.2 -376.8 171.8 -391.1 127.1C-405.3 82.3 -435.9 41.1 -466.5 0L0 0Z" fill="#3c87bc"></path><path d="M0 340.2C-27.7 309.1 -55.5 277.9 -86.6 266.5C-117.7 255.1 -152.1 263.4 -185.9 255.8C-219.6 248.3 -252.7 224.9 -268.4 195C-284.2 165.2 -282.6 128.9 -293.3 95.3C-304 61.7 -326.9 30.9 -349.9 0L0 0Z" fill="#2b76ab"></path><path d="M0 226.8C-18.5 206 -37 185.3 -57.7 177.7C-78.5 170 -101.4 175.6 -123.9 170.5C-146.4 165.5 -168.5 149.9 -179 130C-189.5 110.1 -188.4 85.9 -195.5 63.5C-202.7 41.1 -217.9 20.6 -233.2 0L0 0Z" fill="#176599"></path><path d="M0 113.4C-9.2 103 -18.5 92.6 -28.9 88.8C-39.2 85 -50.7 87.8 -62 85.3C-73.2 82.8 -84.2 75 -89.5 65C-94.7 55.1 -94.2 43 -97.8 31.8C-101.3 20.6 -109 10.3 -116.6 0L0 0Z" fill="#085d91"></path></g><g transform="translate(0, 600)"><path d="M0 -520C57.2 -529.2 114.4 -538.4 171.8 -528.8C229.3 -519.1 287 -490.6 322.7 -444.2C358.4 -397.7 372 -333.3 388.3 -282.1C404.6 -231 423.6 -193.1 456.5 -148.3C489.4 -103.5 536.3 -51.8 583.1 0L0 0Z" fill="#4c99cd"></path><path d="M0 -416C45.7 -423.4 91.5 -430.8 137.5 -423C183.4 -415.3 229.6 -392.5 258.2 -355.3C286.7 -318.1 297.6 -266.6 310.7 -225.7C323.7 -184.8 338.9 -154.5 365.2 -118.7C391.5 -82.8 429 -41.4 466.5 0L0 0Z" fill="#3c87bc"></path><path d="M0 -312C34.3 -317.5 68.6 -323.1 103.1 -317.3C137.6 -311.5 172.2 -294.4 193.6 -266.5C215 -238.6 223.2 -200 233 -169.3C242.8 -138.6 254.2 -115.9 273.9 -89C293.6 -62.1 321.8 -31.1 349.9 0L0 0Z" fill="#2b76ab"></path><path d="M0 -208C22.9 -211.7 45.7 -215.4 68.7 -211.5C91.7 -207.7 114.8 -196.2 129.1 -177.7C143.4 -159.1 148.8 -133.3 155.3 -112.9C161.9 -92.4 169.4 -77.3 182.6 -59.3C195.8 -41.4 214.5 -20.7 233.2 0L0 0Z" fill="#176599"></path><path d="M0 -104C11.4 -105.8 22.9 -107.7 34.4 -105.8C45.9 -103.8 57.4 -98.1 64.5 -88.8C71.7 -79.5 74.4 -66.7 77.7 -56.4C80.9 -46.2 84.7 -38.6 91.3 -29.7C97.9 -20.7 107.3 -10.4 116.6 0L0 0Z" fill="#085d91"></path></g></svg>