<svg id="visual" viewBox="0 0 1920 900" width="1920" height="900" xmlns="http://www.w3.org/2000/svg" xmlns:xlink="http://www.w3.org/1999/xlink" version="1.1"><rect x="0" y="0" width="1920" height="900" fill="#7cb7df"></rect><path d="M0 484L274 464L549 354L823 507L1097 390L1371 489L1646 339L1920 444L1920 901L1646 901L1371 901L1097 901L823 901L549 901L274 901L0 901Z" fill="#085d91"></path><path d="M0 467L274 590L549 503L823 423L1097 530L1371 434L1646 584L1920 466L1920 901L1646 901L1371 901L1097 901L823 901L549 901L274 901L0 901Z" fill="#216da2"></path><path d="M0 686L274 663L549 532L823 656L1097 516L1371 640L1646 520L1920 571L1920 901L1646 901L1371 901L1097 901L823 901L549 901L274 901L0 901Z" fill="#337eb3"></path><path d="M0 662L274 662L549 700L823 729L1097 700L1371 702L1646 675L1920 733L1920 901L1646 901L1371 901L1097 901L823 901L549 901L274 901L0 901Z" fill="#438fc4"></path><path d="M0 755L274 826L549 828L823 769L1097 828L1371 726L1646 770L1920 728L1920 901L1646 901L1371 901L1097 901L823 901L549 901L274 901L0 901Z" fill="#53a1d5"></path></svg>