<svg id="visual" viewBox="0 0 1920 900" width="1920" height="900" xmlns="http://www.w3.org/2000/svg" xmlns:xlink="http://www.w3.org/1999/xlink" version="1.1"><path d="M0 91L274 91L549 82L823 82L1097 91L1371 82L1646 100L1920 100L1920 0L1646 0L1371 0L1097 0L823 0L549 0L274 0L0 0Z" fill="#53a1d5"></path><path d="M0 163L274 154L549 145L823 154L1097 163L1371 145L1646 172L1920 163L1920 98L1646 98L1371 80L1097 89L823 80L549 80L274 89L0 89Z" fill="#4b98cc"></path><path d="M0 208L274 199L549 190L823 199L1097 208L1371 190L1646 217L1920 208L1920 161L1646 170L1371 143L1097 161L823 152L549 143L274 152L0 161Z" fill="#438fc4"></path><path d="M0 388L274 415L549 415L823 397L1097 397L1371 406L1646 424L1920 415L1920 206L1646 215L1371 188L1097 206L823 197L549 188L274 197L0 206Z" fill="#3b87bb"></path><path d="M0 451L274 478L549 478L823 460L1097 460L1371 469L1646 478L1920 469L1920 413L1646 422L1371 404L1097 395L823 395L549 413L274 413L0 386Z" fill="#337eb3"></path><path d="M0 505L274 532L549 532L823 514L1097 514L1371 523L1646 532L1920 523L1920 467L1646 476L1371 467L1097 458L823 458L549 476L274 476L0 449Z" fill="#2a76aa"></path><path d="M0 631L274 640L549 640L823 631L1097 631L1371 631L1646 649L1920 631L1920 521L1646 530L1371 521L1097 512L823 512L549 530L274 530L0 503Z" fill="#216da2"></path><path d="M0 820L274 829L549 820L823 829L1097 829L1371 820L1646 829L1920 820L1920 629L1646 647L1371 629L1097 629L823 629L549 638L274 638L0 629Z" fill="#176599"></path><path d="M0 901L274 901L549 901L823 901L1097 901L1371 901L1646 901L1920 901L1920 818L1646 827L1371 818L1097 827L823 827L549 818L274 827L0 818Z" fill="#085d91"></path></svg>